<svg width="741" height="112" viewBox="0 0 741 112" fill="none" xmlns="http://www.w3.org/2000/svg">
<g filter="url(#filter0_d_1_6)">
<path d="M69.584 2.352C70.064 1.58399 70.736 1.19999 71.6 1.19999H88.448C88.928 1.19999 89.312 1.39199 89.6 1.77599C89.984 2.064 90.176 2.448 90.176 2.928V100.272C90.176 100.752 89.984 101.184 89.6 101.568C89.312 101.856 88.928 102 88.448 102H71.6C71.12 102 70.688 101.856 70.304 101.568C70.016 101.184 69.872 100.752 69.872 100.272V36.768C69.872 36.384 69.776 36.192 69.584 36.192C69.392 36.192 69.2 36.336 69.008 36.624L53.744 60.528C53.264 61.296 52.592 61.68 51.728 61.68H43.232C42.368 61.68 41.696 61.296 41.216 60.528L25.952 36.624C25.76 36.336 25.568 36.24 25.376 36.336C25.184 36.336 25.088 36.528 25.088 36.912V100.272C25.088 100.752 24.896 101.184 24.512 101.568C24.224 101.856 23.84 102 23.36 102H6.512C6.032 102 5.6 101.856 5.216 101.568C4.928 101.184 4.784 100.752 4.784 100.272V2.928C4.784 2.448 4.928 2.064 5.216 1.77599C5.6 1.39199 6.032 1.19999 6.512 1.19999H23.36C24.224 1.19999 24.896 1.58399 25.376 2.352L46.976 35.904C47.264 36.48 47.552 36.48 47.84 35.904L69.584 2.352ZM135.945 26.832C142.186 26.832 147.754 27.936 152.65 30.144C157.546 32.256 161.338 35.184 164.026 38.928C166.81 42.672 168.202 46.848 168.202 51.456V100.272C168.202 100.752 168.01 101.184 167.626 101.568C167.338 101.856 166.954 102 166.474 102H149.626C149.146 102 148.714 101.856 148.33 101.568C148.042 101.184 147.898 100.752 147.898 100.272V95.52C147.898 95.232 147.802 95.04 147.61 94.944C147.418 94.848 147.226 94.944 147.034 95.232C143.002 100.512 136.522 103.152 127.594 103.152C120.106 103.152 114.058 101.328 109.45 97.68C104.842 94.032 102.538 88.656 102.538 81.552C102.538 74.16 105.13 68.448 110.314 64.416C115.498 60.288 122.89 58.224 132.49 58.224H147.178C147.658 58.224 147.898 57.984 147.898 57.504V54.336C147.898 51.168 146.938 48.72 145.018 46.992C143.098 45.168 140.218 44.256 136.378 44.256C133.402 44.256 130.906 44.784 128.89 45.84C126.97 46.896 125.722 48.384 125.146 50.304C124.858 51.36 124.234 51.84 123.274 51.744L105.85 49.44C104.698 49.248 104.17 48.816 104.266 48.144C104.65 44.112 106.234 40.464 109.018 37.2C111.898 33.936 115.642 31.392 120.25 29.568C124.954 27.744 130.186 26.832 135.945 26.832ZM133.066 88.032C137.194 88.032 140.698 86.928 143.578 84.72C146.458 82.512 147.898 79.68 147.898 76.224V71.04C147.898 70.56 147.658 70.32 147.178 70.32H136.81C132.49 70.32 129.082 71.136 126.586 72.768C124.186 74.4 122.986 76.704 122.986 79.68C122.986 82.272 123.898 84.336 125.722 85.872C127.546 87.312 129.994 88.032 133.066 88.032ZM223.437 42.528C223.437 43.008 223.245 43.44 222.861 43.824C222.573 44.112 222.189 44.256 221.709 44.256H207.885C207.405 44.256 207.165 44.496 207.165 44.976V75.504C207.165 78.672 207.789 81.024 209.037 82.56C210.381 84.096 212.493 84.864 215.373 84.864H220.125C220.605 84.864 220.989 85.056 221.277 85.44C221.661 85.728 221.853 86.112 221.853 86.592V100.272C221.853 101.328 221.277 101.952 220.125 102.144C216.093 102.336 213.213 102.432 211.485 102.432C203.517 102.432 197.565 101.136 193.629 98.544C189.693 95.856 187.677 90.864 187.581 83.568V44.976C187.581 44.496 187.341 44.256 186.861 44.256H178.653C178.173 44.256 177.741 44.112 177.357 43.824C177.069 43.44 176.925 43.008 176.925 42.528V29.712C176.925 29.232 177.069 28.848 177.357 28.56C177.741 28.176 178.173 27.984 178.653 27.984H186.861C187.341 27.984 187.581 27.744 187.581 27.264V10.128C187.581 9.648 187.725 9.264 188.013 8.976C188.397 8.592 188.829 8.39999 189.309 8.39999H205.437C205.917 8.39999 206.301 8.592 206.589 8.976C206.973 9.264 207.165 9.648 207.165 10.128V27.264C207.165 27.744 207.405 27.984 207.885 27.984H221.709C222.189 27.984 222.573 28.176 222.861 28.56C223.245 28.848 223.437 29.232 223.437 29.712V42.528ZM274.252 26.832C281.932 26.832 288.124 29.184 292.828 33.888C297.532 38.592 299.884 44.976 299.884 53.04V100.272C299.884 100.752 299.692 101.184 299.308 101.568C299.02 101.856 298.636 102 298.156 102H281.308C280.828 102 280.396 101.856 280.012 101.568C279.724 101.184 279.58 100.752 279.58 100.272V57.216C279.58 53.376 278.476 50.256 276.268 47.856C274.156 45.456 271.324 44.256 267.772 44.256C264.22 44.256 261.34 45.456 259.132 47.856C257.02 50.256 255.964 53.376 255.964 57.216V100.272C255.964 100.752 255.772 101.184 255.388 101.568C255.1 101.856 254.716 102 254.236 102H237.388C236.908 102 236.476 101.856 236.092 101.568C235.804 101.184 235.66 100.752 235.66 100.272V2.928C235.66 2.448 235.804 2.064 236.092 1.77599C236.476 1.39199 236.908 1.19999 237.388 1.19999H254.236C254.716 1.19999 255.1 1.39199 255.388 1.77599C255.772 2.064 255.964 2.448 255.964 2.928V34.752C255.964 35.04 256.06 35.232 256.252 35.328C256.444 35.424 256.588 35.376 256.684 35.184C260.62 29.616 266.476 26.832 274.252 26.832ZM351.13 103.152C343.738 103.152 337.21 101.664 331.546 98.688C325.882 95.712 321.466 91.584 318.298 86.304C315.226 80.928 313.69 74.736 313.69 67.728V35.472C313.69 28.464 315.226 22.272 318.298 16.896C321.466 11.52 325.882 7.392 331.546 4.51199C337.21 1.536 343.738 0.0479994 351.13 0.0479994C358.426 0.0479994 364.858 1.488 370.426 4.368C376.09 7.248 380.458 11.184 383.53 16.176C386.698 21.072 388.282 26.544 388.282 32.592V33.6C388.282 34.08 388.09 34.512 387.706 34.896C387.418 35.184 387.034 35.328 386.554 35.328H369.706C369.226 35.328 368.794 35.184 368.41 34.896C368.122 34.512 367.978 34.08 367.978 33.6V33.168C367.978 28.752 366.442 25.056 363.37 22.08C360.298 19.008 356.218 17.472 351.13 17.472C345.946 17.472 341.77 19.104 338.602 22.368C335.53 25.536 333.994 29.712 333.994 34.896V68.304C333.994 73.488 335.674 77.712 339.034 80.976C342.394 84.144 346.666 85.728 351.85 85.728C356.842 85.728 360.826 84.432 363.802 81.84C366.778 79.152 368.266 75.456 368.266 70.752V64.272C368.266 63.792 368.026 63.552 367.546 63.552H351.418C350.938 63.552 350.506 63.408 350.122 63.12C349.834 62.736 349.69 62.304 349.69 61.824V48.576C349.69 48.096 349.834 47.712 350.122 47.424C350.506 47.04 350.938 46.848 351.418 46.848H386.554C387.034 46.848 387.418 47.04 387.706 47.424C388.09 47.712 388.282 48.096 388.282 48.576V67.584C388.282 74.88 386.746 81.216 383.674 86.592C380.602 91.968 376.234 96.096 370.57 98.976C365.002 101.76 358.522 103.152 351.13 103.152ZM431.68 26.832C437.92 26.832 443.488 27.936 448.384 30.144C453.28 32.256 457.072 35.184 459.76 38.928C462.544 42.672 463.936 46.848 463.936 51.456V100.272C463.936 100.752 463.744 101.184 463.36 101.568C463.072 101.856 462.688 102 462.208 102H445.36C444.88 102 444.448 101.856 444.064 101.568C443.776 101.184 443.632 100.752 443.632 100.272V95.52C443.632 95.232 443.536 95.04 443.344 94.944C443.152 94.848 442.96 94.944 442.768 95.232C438.736 100.512 432.256 103.152 423.328 103.152C415.84 103.152 409.792 101.328 405.184 97.68C400.576 94.032 398.272 88.656 398.272 81.552C398.272 74.16 400.864 68.448 406.048 64.416C411.232 60.288 418.624 58.224 428.224 58.224H442.912C443.392 58.224 443.632 57.984 443.632 57.504V54.336C443.632 51.168 442.672 48.72 440.752 46.992C438.832 45.168 435.952 44.256 432.112 44.256C429.136 44.256 426.64 44.784 424.624 45.84C422.704 46.896 421.456 48.384 420.88 50.304C420.592 51.36 419.968 51.84 419.008 51.744L401.584 49.44C400.432 49.248 399.904 48.816 400 48.144C400.384 44.112 401.968 40.464 404.752 37.2C407.632 33.936 411.376 31.392 415.984 29.568C420.688 27.744 425.92 26.832 431.68 26.832ZM428.8 88.032C432.928 88.032 436.432 86.928 439.312 84.72C442.192 82.512 443.632 79.68 443.632 76.224V71.04C443.632 70.56 443.392 70.32 442.912 70.32H432.544C428.224 70.32 424.816 71.136 422.32 72.768C419.92 74.4 418.72 76.704 418.72 79.68C418.72 82.272 419.632 84.336 421.456 85.872C423.28 87.312 425.728 88.032 428.8 88.032ZM560.318 26.832C567.806 26.832 573.662 29.088 577.886 33.6C582.11 38.112 584.222 44.448 584.222 52.608V100.272C584.222 100.752 584.03 101.184 583.646 101.568C583.358 101.856 582.974 102 582.494 102H565.646C565.166 102 564.734 101.856 564.35 101.568C564.062 101.184 563.918 100.752 563.918 100.272V57.072C563.918 53.136 562.91 50.016 560.894 47.712C558.878 45.408 556.19 44.256 552.83 44.256C549.47 44.256 546.734 45.408 544.622 47.712C542.51 50.016 541.454 53.088 541.454 56.928V100.272C541.454 100.752 541.262 101.184 540.878 101.568C540.59 101.856 540.206 102 539.726 102H523.022C522.542 102 522.11 101.856 521.726 101.568C521.438 101.184 521.294 100.752 521.294 100.272V57.072C521.294 53.232 520.238 50.16 518.126 47.856C516.014 45.456 513.278 44.256 509.918 44.256C506.846 44.256 504.254 45.168 502.142 46.992C500.126 48.816 498.926 51.36 498.542 54.624V100.272C498.542 100.752 498.35 101.184 497.966 101.568C497.678 101.856 497.294 102 496.814 102H479.966C479.486 102 479.054 101.856 478.67 101.568C478.382 101.184 478.238 100.752 478.238 100.272V29.712C478.238 29.232 478.382 28.848 478.67 28.56C479.054 28.176 479.486 27.984 479.966 27.984H496.814C497.294 27.984 497.678 28.176 497.966 28.56C498.35 28.848 498.542 29.232 498.542 29.712V35.328C498.542 35.616 498.638 35.808 498.83 35.904C499.022 36 499.214 35.904 499.406 35.616C503.342 29.76 509.438 26.832 517.694 26.832C522.494 26.832 526.67 27.84 530.222 29.856C533.87 31.872 536.654 34.752 538.574 38.496C538.862 39.072 539.198 39.072 539.582 38.496C541.694 34.56 544.526 31.632 548.078 29.712C551.726 27.792 555.806 26.832 560.318 26.832ZM663.571 57.36C664.147 61.008 664.339 65.088 664.147 69.6C664.051 70.752 663.427 71.328 662.275 71.328H617.779C617.203 71.328 617.011 71.568 617.203 72.048C617.491 73.968 618.019 75.888 618.787 77.808C621.283 83.184 626.371 85.872 634.051 85.872C640.195 85.776 645.043 83.28 648.595 78.384C648.979 77.808 649.411 77.52 649.891 77.52C650.179 77.52 650.515 77.712 650.899 78.096L661.267 88.32C661.747 88.8 661.987 89.232 661.987 89.616C661.987 89.808 661.795 90.192 661.411 90.768C658.243 94.704 654.163 97.776 649.171 99.984C644.179 102.096 638.707 103.152 632.755 103.152C624.499 103.152 617.491 101.28 611.73 97.536C606.067 93.792 601.987 88.56 599.491 81.84C597.475 77.04 596.467 70.752 596.467 62.976C596.467 57.696 597.187 53.04 598.627 49.008C600.835 42.192 604.675 36.768 610.147 32.736C615.715 28.704 622.291 26.688 629.875 26.688C639.475 26.688 647.155 29.472 652.915 35.04C658.771 40.608 662.323 48.048 663.571 57.36ZM630.019 44.256C623.971 44.256 619.987 47.088 618.067 52.752C617.683 54 617.347 55.536 617.059 57.36C617.059 57.84 617.299 58.08 617.779 58.08H642.691C643.267 58.08 643.459 57.84 643.267 57.36C642.787 54.576 642.547 53.232 642.547 53.328C641.683 50.448 640.147 48.24 637.939 46.704C635.827 45.072 633.187 44.256 630.019 44.256ZM705.195 103.008C698.764 103.008 693.148 102.096 688.348 100.272C683.548 98.448 679.804 95.904 677.116 92.64C674.524 89.376 673.228 85.68 673.228 81.552V80.112C673.228 79.632 673.372 79.248 673.66 78.96C674.044 78.576 674.476 78.384 674.956 78.384H690.94C691.42 78.384 691.804 78.576 692.092 78.96C692.476 79.248 692.668 79.632 692.668 80.112V80.256C692.668 82.368 693.82 84.192 696.124 85.728C698.524 87.168 701.5 87.888 705.052 87.888C708.316 87.888 710.956 87.264 712.972 86.016C714.988 84.672 715.996 83.04 715.996 81.12C715.996 79.392 715.132 78.096 713.404 77.232C711.676 76.368 708.844 75.456 704.908 74.496C700.396 73.344 696.844 72.24 694.252 71.184C688.108 69.072 683.212 66.48 679.564 63.408C675.916 60.336 674.092 55.92 674.092 50.16C674.092 43.056 676.828 37.44 682.3 33.312C687.868 29.088 695.212 26.976 704.332 26.976C710.476 26.976 715.852 27.984 720.46 30C725.068 31.92 728.62 34.656 731.116 38.208C733.708 41.76 735.004 45.792 735.004 50.304C735.004 50.784 734.812 51.216 734.428 51.6C734.14 51.888 733.756 52.032 733.276 52.032H717.868C717.388 52.032 716.956 51.888 716.572 51.6C716.284 51.216 716.14 50.784 716.14 50.304C716.14 48.192 715.036 46.416 712.828 44.976C710.716 43.536 707.884 42.816 704.332 42.816C701.164 42.816 698.572 43.392 696.556 44.544C694.54 45.696 693.532 47.28 693.532 49.296C693.532 51.216 694.492 52.656 696.412 53.616C698.428 54.576 701.74 55.584 706.348 56.64C707.404 56.928 708.604 57.264 709.948 57.648C711.292 57.936 712.732 58.32 714.268 58.8C721.084 60.816 726.46 63.408 730.396 66.576C734.332 69.744 736.3 74.352 736.3 80.4C736.3 87.504 733.468 93.072 727.804 97.104C722.236 101.04 714.7 103.008 705.195 103.008Z" fill="url(#paint0_linear_1_6)" shape-rendering="crispEdges"/>
<path d="M69.584 2.352L70.4232 2.89584L70.4277 2.88895L70.432 2.88199L69.584 2.352ZM89.6 1.77599L88.8 2.376L88.8857 2.49028L89 2.57599L89.6 1.77599ZM89.6 101.568L90.3071 102.275L90.3071 102.275L89.6 101.568ZM70.304 101.568L69.504 102.168L69.5897 102.282L69.704 102.368L70.304 101.568ZM69.008 36.624L68.1759 36.0693L68.1705 36.0775L68.1652 36.0858L69.008 36.624ZM53.744 60.528L52.9011 59.9898L52.896 59.998L53.744 60.528ZM41.216 60.528L42.064 59.998L42.0588 59.9898L41.216 60.528ZM25.952 36.624L26.7948 36.0858L26.7895 36.0775L26.7841 36.0693L25.952 36.624ZM25.376 36.336V37.336H25.6121L25.8232 37.2304L25.376 36.336ZM24.512 101.568L25.2191 102.275L24.512 101.568ZM5.216 101.568L4.416 102.168L4.50171 102.282L4.616 102.368L5.216 101.568ZM5.216 1.77599L4.50889 1.06889H4.50889L5.216 1.77599ZM25.376 2.352L24.5279 2.88204L24.5352 2.8933L25.376 2.352ZM46.976 35.904L47.8704 35.4568L47.8462 35.4083L47.8168 35.3627L46.976 35.904ZM47.84 35.904L47.0008 35.3601L46.9705 35.4069L46.9456 35.4568L47.84 35.904ZM70.432 2.88199C70.7399 2.38931 71.1004 2.19999 71.6 2.19999V0.199993C70.3716 0.199993 69.3881 0.778679 68.736 1.822L70.432 2.88199ZM71.6 2.19999H88.448V0.199993H71.6V2.19999ZM88.448 2.19999C88.6132 2.19999 88.7009 2.2438 88.8 2.376L90.4 1.17599C89.9231 0.540188 89.2428 0.199993 88.448 0.199993V2.19999ZM89 2.57599C89.1322 2.67514 89.176 2.76276 89.176 2.928H91.176C91.176 2.13324 90.8358 1.45285 90.2 0.975994L89 2.57599ZM89.176 2.928V100.272H91.176V2.928H89.176ZM89.176 100.272C89.176 100.451 89.1162 100.638 88.8929 100.861L90.3071 102.275C90.8518 101.73 91.176 101.053 91.176 100.272H89.176ZM88.8929 100.861C88.8256 100.928 88.7137 101 88.448 101V103C89.1423 103 89.7984 102.784 90.3071 102.275L88.8929 100.861ZM88.448 101H71.6V103H88.448V101ZM71.6 101C71.3364 101 71.1149 100.926 70.904 100.768L69.704 102.368C70.2611 102.786 70.9036 103 71.6 103V101ZM71.104 100.968C70.9458 100.757 70.872 100.536 70.872 100.272H68.872C68.872 100.968 69.0862 101.611 69.504 102.168L71.104 100.968ZM70.872 100.272V36.768H68.872V100.272H70.872ZM70.872 36.768C70.872 36.5249 70.8469 36.1937 70.6944 35.8888C70.6111 35.7222 70.4764 35.5371 70.2647 35.396C70.0467 35.2506 69.807 35.192 69.584 35.192V37.192C69.457 37.192 69.3013 37.1574 69.1553 37.06C69.0156 36.9669 68.9409 36.8538 68.9056 36.7832C68.8722 36.7165 68.8665 36.6739 68.8676 36.6804C68.8682 36.6842 68.872 36.711 68.872 36.768H70.872ZM69.584 35.192C68.8611 35.192 68.4082 35.7209 68.1759 36.0693L69.8401 37.1787C69.8985 37.091 69.9212 37.0811 69.896 37.1C69.8628 37.1249 69.7535 37.192 69.584 37.192V35.192ZM68.1652 36.0858L52.9012 59.9898L54.5868 61.0662L69.8508 37.1622L68.1652 36.0858ZM52.896 59.998C52.5881 60.4907 52.2276 60.68 51.728 60.68V62.68C52.9565 62.68 53.9399 62.1013 54.592 61.058L52.896 59.998ZM51.728 60.68H43.232V62.68H51.728V60.68ZM43.232 60.68C42.7324 60.68 42.3719 60.4907 42.064 59.998L40.368 61.058C41.0201 62.1013 42.0036 62.68 43.232 62.68V60.68ZM42.0588 59.9898L26.7948 36.0858L25.1092 37.1622L40.3732 61.0662L42.0588 59.9898ZM26.7841 36.0693C26.6446 35.8602 26.4306 35.6012 26.1112 35.4416C25.7337 35.2528 25.3063 35.2528 24.9288 35.4416L25.8232 37.2304C25.7489 37.2676 25.6448 37.3 25.52 37.3C25.3952 37.3 25.2911 37.2676 25.2168 37.2304C25.0894 37.1667 25.0674 37.0998 25.1199 37.1787L26.7841 36.0693ZM25.376 35.336C25.153 35.336 24.9133 35.3946 24.6953 35.5399C24.4836 35.6811 24.3489 35.8661 24.2656 36.0328C24.1131 36.3377 24.088 36.6689 24.088 36.912H26.088C26.088 36.855 26.0918 36.8282 26.0924 36.8244C26.0935 36.8179 26.0878 36.8605 26.0544 36.9272C26.0191 36.9978 25.9444 37.1109 25.8047 37.204C25.6587 37.3014 25.503 37.336 25.376 37.336V35.336ZM24.088 36.912V100.272H26.088V36.912H24.088ZM24.088 100.272C24.088 100.451 24.0282 100.638 23.8049 100.861L25.2191 102.275C25.7638 101.73 26.088 101.053 26.088 100.272H24.088ZM23.8049 100.861C23.7376 100.928 23.6257 101 23.36 101V103C24.0543 103 24.7104 102.784 25.2191 102.275L23.8049 100.861ZM23.36 101H6.512V103H23.36V101ZM6.512 101C6.24837 101 6.0269 100.926 5.816 100.768L4.616 102.368C5.1731 102.786 5.81563 103 6.512 103V101ZM6.016 100.968C5.85782 100.757 5.784 100.536 5.784 100.272H3.784C3.784 100.968 3.99818 101.611 4.416 102.168L6.016 100.968ZM5.784 100.272V2.928H3.784V100.272H5.784ZM5.784 2.928C5.784 2.66225 5.85584 2.55037 5.92311 2.4831L4.50889 1.06889C4.00016 1.57763 3.784 2.23374 3.784 2.928H5.784ZM5.92311 2.4831C6.14642 2.25979 6.33292 2.19999 6.512 2.19999V0.199993C5.73108 0.199993 5.05358 0.5242 4.50889 1.06889L5.92311 2.4831ZM6.512 2.19999H23.36V0.199993H6.512V2.19999ZM23.36 2.19999C23.8596 2.19999 24.2201 2.38931 24.528 2.88199L26.224 1.822C25.5719 0.778679 24.5884 0.199993 23.36 0.199993V2.19999ZM24.5352 2.8933L46.1352 36.4453L47.8168 35.3627L26.2168 1.81069L24.5352 2.8933ZM46.0816 36.3512C46.1771 36.5423 46.3059 36.7562 46.4849 36.9351C46.6659 37.1161 46.9772 37.336 47.408 37.336C47.8388 37.336 48.1501 37.1161 48.3311 36.9351C48.5101 36.7561 48.6389 36.5423 48.7344 36.3512L46.9456 35.4568C46.8971 35.5537 46.8819 35.5558 46.9169 35.5209C46.9539 35.4839 47.1212 35.336 47.408 35.336C47.6948 35.336 47.8621 35.4839 47.8991 35.5209C47.9341 35.5558 47.9189 35.5537 47.8704 35.4568L46.0816 36.3512ZM48.6792 36.4478L70.4232 2.89584L68.7448 1.80815L47.0008 35.3601L48.6792 36.4478ZM152.65 30.144L152.238 31.0556L152.246 31.059L152.253 31.0622L152.65 30.144ZM164.025 38.928L163.213 39.5112L163.218 39.518L163.223 39.5247L164.025 38.928ZM167.626 101.568L166.918 100.861V100.861L167.626 101.568ZM148.329 101.568L147.53 102.168L147.615 102.282L147.73 102.368L148.329 101.568ZM147.609 94.944L148.057 94.0496L147.609 94.944ZM147.034 95.232L147.828 95.8389L147.848 95.8134L147.866 95.7867L147.034 95.232ZM109.45 97.68L110.07 96.896L109.45 97.68ZM110.313 64.416L110.927 65.2054L110.936 65.1983L110.313 64.416ZM145.018 46.992L144.329 47.717L144.339 47.7263L144.349 47.7353L145.018 46.992ZM128.889 45.84L128.425 44.9542L128.416 44.9589L128.408 44.9638L128.889 45.84ZM125.146 50.304L124.188 50.0166L124.184 50.0287L124.181 50.0409L125.146 50.304ZM123.273 51.744L123.142 52.7354L123.158 52.7375L123.174 52.739L123.273 51.744ZM105.85 49.44L105.685 50.4264L105.702 50.4292L105.718 50.4314L105.85 49.44ZM104.266 48.144L105.255 48.2854L105.259 48.2622L105.261 48.2388L104.266 48.144ZM109.018 37.2L108.268 36.5384L108.262 36.5447L108.257 36.551L109.018 37.2ZM120.249 29.568L119.888 28.6356L119.881 28.6382L120.249 29.568ZM126.585 72.768L126.038 71.931L126.031 71.936L126.023 71.9411L126.585 72.768ZM125.721 85.872L125.077 86.6369L125.089 86.6471L125.102 86.6569L125.721 85.872ZM135.945 27.832C142.067 27.832 147.491 28.9146 152.238 31.0556L153.061 29.2324C148.016 26.9575 142.304 25.832 135.945 25.832V27.832ZM152.253 31.0622C157.009 33.1138 160.647 35.9364 163.213 39.5112L164.838 38.3448C162.028 34.4316 158.082 31.3982 153.046 29.2258L152.253 31.0622ZM163.223 39.5247C165.881 43.0985 167.202 47.0658 167.202 51.456H169.202C169.202 46.6302 167.739 42.2455 164.828 38.3313L163.223 39.5247ZM167.202 51.456V100.272H169.202V51.456H167.202ZM167.202 100.272C167.202 100.451 167.142 100.638 166.918 100.861L168.333 102.275C168.877 101.73 169.202 101.053 169.202 100.272H167.202ZM166.918 100.861C166.851 100.928 166.739 101 166.473 101V103C167.168 103 167.824 102.784 168.333 102.275L166.918 100.861ZM166.473 101H149.626V103H166.473V101ZM149.626 101C149.362 101 149.14 100.926 148.93 100.768L147.73 102.368C148.287 102.786 148.929 103 149.626 103V101ZM149.13 100.968C148.971 100.757 148.898 100.536 148.898 100.272H146.898C146.898 100.968 147.112 101.611 147.53 102.168L149.13 100.968ZM148.898 100.272V95.52H146.898V100.272H148.898ZM148.898 95.52C148.898 95.0042 148.704 94.3733 148.057 94.0496L147.162 95.8384C147.119 95.817 147.072 95.7851 147.028 95.7411C146.984 95.6971 146.953 95.6501 146.931 95.6072C146.89 95.5253 146.898 95.4807 146.898 95.52H148.898ZM148.057 94.0496C147.679 93.8608 147.252 93.8608 146.874 94.0496C146.555 94.2092 146.341 94.4682 146.201 94.6773L147.866 95.7867C147.918 95.7078 147.896 95.7747 147.769 95.8384C147.694 95.8756 147.59 95.908 147.465 95.908C147.341 95.908 147.237 95.8756 147.162 95.8384L148.057 94.0496ZM146.239 94.6251C142.456 99.5781 136.325 102.152 127.594 102.152V104.152C136.718 104.152 143.547 101.446 147.828 95.8389L146.239 94.6251ZM127.594 102.152C120.268 102.152 114.458 100.37 110.07 96.896L108.829 98.4641C113.657 102.286 119.943 104.152 127.594 104.152V102.152ZM110.07 96.896C105.752 93.4776 103.537 88.4213 103.537 81.552H101.537C101.537 88.8907 103.931 94.5864 108.829 98.4641L110.07 96.896ZM103.537 81.552C103.537 74.4245 106.02 69.0224 110.927 65.2054L109.7 63.6266C104.239 67.8736 101.537 73.8955 101.537 81.552H103.537ZM110.936 65.1983C115.879 61.2623 123.017 59.224 132.49 59.224V57.224C122.762 57.224 115.116 59.3137 109.691 63.6337L110.936 65.1983ZM132.49 59.224H147.178V57.224H132.49V59.224ZM147.178 59.224C147.572 59.224 148.051 59.1248 148.425 58.7511C148.798 58.3774 148.898 57.8981 148.898 57.504H146.898C146.898 57.5899 146.877 57.4706 147.01 57.3369C147.144 57.2032 147.263 57.224 147.178 57.224V59.224ZM148.898 57.504V54.336H146.898V57.504H148.898ZM148.898 54.336C148.898 50.9539 147.864 48.2083 145.686 46.2487L144.349 47.7353C146.011 49.2317 146.898 51.3821 146.898 54.336H148.898ZM145.706 46.267C143.531 44.2008 140.359 43.256 136.378 43.256V45.256C140.076 45.256 142.664 46.1352 144.329 47.717L145.706 46.267ZM136.378 43.256C133.288 43.256 130.622 43.8037 128.425 44.9542L129.354 46.7258C131.189 45.7643 133.515 45.256 136.378 45.256V43.256ZM128.408 44.9638C126.281 46.1332 124.846 47.821 124.188 50.0166L126.103 50.5913C126.597 48.947 127.658 47.6588 129.371 46.7162L128.408 44.9638ZM124.181 50.0409C124.072 50.4389 123.935 50.5996 123.852 50.6634C123.785 50.7147 123.66 50.7776 123.373 50.749L123.174 52.739C123.847 52.8064 124.514 52.6773 125.071 52.2486C125.612 51.8324 125.931 51.2251 126.11 50.5671L124.181 50.0409ZM123.405 50.7526L105.981 48.4486L105.718 50.4314L123.142 52.7354L123.405 50.7526ZM106.014 48.4536C105.503 48.3684 105.287 48.2506 105.223 48.198C105.203 48.1821 105.224 48.194 105.242 48.2386C105.259 48.2834 105.252 48.3077 105.255 48.2854L103.276 48.0026C103.178 48.6872 103.423 49.3097 103.956 49.746C104.42 50.1254 105.044 50.3196 105.685 50.4264L106.014 48.4536ZM105.261 48.2388C105.624 44.4237 107.119 40.9665 109.778 37.8489L108.257 36.551C105.348 39.9615 103.675 43.8003 103.27 48.0492L105.261 48.2388ZM109.767 37.8616C112.529 34.7313 116.136 32.2719 120.618 30.4978L119.881 28.6382C115.147 30.5121 111.266 33.1407 108.268 36.5384L109.767 37.8616ZM120.611 30.5004C125.185 28.7269 130.292 27.832 135.945 27.832V25.832C130.079 25.832 124.722 26.7611 119.888 28.6356L120.611 30.5004ZM133.066 89.032C137.382 89.032 141.108 87.8736 144.186 85.5136L142.969 83.9264C140.287 85.9825 137.005 87.032 133.066 87.032V89.032ZM144.186 85.5136C147.298 83.1274 148.898 80.0087 148.898 76.224H146.898C146.898 79.3513 145.617 81.8966 142.969 83.9264L144.186 85.5136ZM148.898 76.224V71.04H146.898V76.224H148.898ZM148.898 71.04C148.898 70.6459 148.798 70.1666 148.425 69.7929C148.051 69.4192 147.572 69.32 147.178 69.32V71.32C147.263 71.32 147.144 71.3408 147.01 71.2071C146.877 71.0734 146.898 70.9541 146.898 71.04H148.898ZM147.178 69.32H136.81V71.32H147.178V69.32ZM136.81 69.32C132.378 69.32 128.755 70.155 126.038 71.931L127.133 73.605C129.408 72.117 132.601 71.32 136.81 71.32V69.32ZM126.023 71.9411C123.341 73.7648 121.986 76.383 121.986 79.68H123.986C123.986 77.025 125.03 75.0351 127.148 73.5949L126.023 71.9411ZM121.986 79.68C121.986 82.5379 123.006 84.8929 125.077 86.6369L126.366 85.1071C124.789 83.7791 123.986 82.0061 123.986 79.68H121.986ZM125.102 86.6569C127.152 88.2753 129.841 89.032 133.066 89.032V87.032C130.146 87.032 127.939 86.3486 126.341 85.0871L125.102 86.6569ZM222.861 43.824L223.568 44.5311L222.861 43.824ZM209.037 82.56L208.261 83.1906L208.272 83.2048L208.284 83.2185L209.037 82.56ZM221.277 85.44L220.477 86.04L220.562 86.1543L220.677 86.24L221.277 85.44ZM220.125 102.144L220.172 103.143L220.231 103.14L220.289 103.13L220.125 102.144ZM193.629 98.544L193.065 99.3698L193.072 99.3745L193.079 99.3792L193.629 98.544ZM187.581 83.568H186.581L186.581 83.5812L187.581 83.568ZM177.357 43.824L176.557 44.424L176.642 44.5383L176.757 44.624L177.357 43.824ZM177.357 28.56L176.65 27.8529V27.8529L177.357 28.56ZM188.013 8.976L187.306 8.26889H187.306L188.013 8.976ZM206.589 8.976L205.789 9.57599L205.874 9.69028L205.989 9.77599L206.589 8.976ZM222.861 28.56L222.061 29.16L222.146 29.2743L222.261 29.36L222.861 28.56ZM222.437 42.528C222.437 42.7071 222.377 42.8936 222.154 43.1169L223.568 44.5311C224.113 43.9864 224.437 43.3089 224.437 42.528H222.437ZM222.154 43.1169C222.086 43.1842 221.975 43.256 221.709 43.256V45.256C222.403 45.256 223.059 45.0398 223.568 44.5311L222.154 43.1169ZM221.709 43.256H207.885V45.256H221.709V43.256ZM207.885 43.256C207.491 43.256 207.011 43.3552 206.638 43.7289C206.264 44.1026 206.165 44.5818 206.165 44.976H208.165C208.165 44.8901 208.186 45.0094 208.052 45.1431C207.918 45.2768 207.799 45.256 207.885 45.256V43.256ZM206.165 44.976V75.504H208.165V44.976H206.165ZM206.165 75.504C206.165 78.7727 206.803 81.3969 208.261 83.1906L209.813 81.9294C208.774 80.6511 208.165 78.5713 208.165 75.504H206.165ZM208.284 83.2185C209.886 85.0493 212.327 85.864 215.373 85.864V83.864C212.659 83.864 210.875 83.1427 209.789 81.9015L208.284 83.2185ZM215.373 85.864H220.125V83.864H215.373V85.864ZM220.125 85.864C220.29 85.864 220.378 85.9078 220.477 86.04L222.077 84.84C221.6 84.2042 220.92 83.864 220.125 83.864V85.864ZM220.677 86.24C220.809 86.3391 220.853 86.4268 220.853 86.592H222.853C222.853 85.7972 222.513 85.1169 221.877 84.64L220.677 86.24ZM220.853 86.592V100.272H222.853V86.592H220.853ZM220.853 100.272C220.853 100.613 220.764 100.769 220.686 100.854C220.596 100.951 220.398 101.085 219.96 101.158L220.289 103.13C221.003 103.011 221.669 102.737 222.156 102.21C222.653 101.671 222.853 100.987 222.853 100.272H220.853ZM220.077 101.145C216.046 101.337 213.187 101.432 211.485 101.432V103.432C213.239 103.432 216.14 103.335 220.172 103.143L220.077 101.145ZM211.485 101.432C203.592 101.432 197.874 100.142 194.179 97.7088L193.079 99.3792C197.256 102.13 203.442 103.432 211.485 103.432V101.432ZM194.193 97.7182C190.646 95.2961 188.675 90.705 188.581 83.5548L186.581 83.5812C186.679 91.023 188.739 96.4159 193.065 99.3698L194.193 97.7182ZM188.581 83.568V44.976H186.581V83.568H188.581ZM188.581 44.976C188.581 44.5818 188.482 44.1026 188.108 43.7289C187.734 43.3552 187.255 43.256 186.861 43.256V45.256C186.947 45.256 186.827 45.2768 186.694 45.1431C186.56 45.0094 186.581 44.8901 186.581 44.976H188.581ZM186.861 43.256H178.653V45.256H186.861V43.256ZM178.653 43.256C178.389 43.256 178.168 43.1822 177.957 43.024L176.757 44.624C177.314 45.0418 177.956 45.256 178.653 45.256V43.256ZM178.157 43.224C177.999 43.0131 177.925 42.7916 177.925 42.528H175.925C175.925 43.2244 176.139 43.8669 176.557 44.424L178.157 43.224ZM177.925 42.528V29.712H175.925V42.528H177.925ZM177.925 29.712C177.925 29.4463 177.997 29.3344 178.064 29.2671L176.65 27.8529C176.141 28.3616 175.925 29.0177 175.925 29.712H177.925ZM178.064 29.2671C178.287 29.0438 178.474 28.984 178.653 28.984V26.984C177.872 26.984 177.194 27.3082 176.65 27.8529L178.064 29.2671ZM178.653 28.984H186.861V26.984H178.653V28.984ZM186.861 28.984C187.255 28.984 187.734 28.8848 188.108 28.5111C188.482 28.1374 188.581 27.6581 188.581 27.264H186.581C186.581 27.3499 186.56 27.2306 186.694 27.0969C186.827 26.9632 186.947 26.984 186.861 26.984V28.984ZM188.581 27.264V10.128H186.581V27.264H188.581ZM188.581 10.128C188.581 9.86226 188.653 9.75037 188.72 9.6831L187.306 8.26889C186.797 8.77763 186.581 9.43374 186.581 10.128H188.581ZM188.72 9.6831C188.943 9.45979 189.13 9.39999 189.309 9.39999V7.39999C188.528 7.39999 187.85 7.7242 187.306 8.26889L188.72 9.6831ZM189.309 9.39999H205.437V7.39999H189.309V9.39999ZM205.437 9.39999C205.602 9.39999 205.69 9.4438 205.789 9.57599L207.389 8.376C206.912 7.74019 206.232 7.39999 205.437 7.39999V9.39999ZM205.989 9.77599C206.121 9.87514 206.165 9.96276 206.165 10.128H208.165C208.165 9.33324 207.825 8.65285 207.189 8.176L205.989 9.77599ZM206.165 10.128V27.264H208.165V10.128H206.165ZM206.165 27.264C206.165 27.6581 206.264 28.1374 206.638 28.5111C207.011 28.8848 207.491 28.984 207.885 28.984V26.984C207.799 26.984 207.918 26.9632 208.052 27.0969C208.186 27.2306 208.165 27.3499 208.165 27.264H206.165ZM207.885 28.984H221.709V26.984H207.885V28.984ZM221.709 28.984C221.874 28.984 221.962 29.0278 222.061 29.16L223.661 27.96C223.184 27.3242 222.504 26.984 221.709 26.984V28.984ZM222.261 29.36C222.393 29.4591 222.437 29.5468 222.437 29.712H224.437C224.437 28.9172 224.097 28.2369 223.461 27.76L222.261 29.36ZM222.437 29.712V42.528H224.437V29.712H222.437ZM292.828 33.888L293.535 33.1809L292.828 33.888ZM299.308 101.568L298.601 100.861V100.861L299.308 101.568ZM280.012 101.568L279.212 102.168L279.298 102.282L279.412 102.368L280.012 101.568ZM276.268 47.856L275.517 48.5166L275.524 48.5249L275.532 48.5331L276.268 47.856ZM259.132 47.856L258.396 47.1789L258.388 47.1871L258.381 47.1954L259.132 47.856ZM255.388 101.568L256.095 102.275L255.388 101.568ZM236.092 101.568L235.292 102.168L235.378 102.282L235.492 102.368L236.092 101.568ZM236.092 1.77599L235.385 1.06889L236.092 1.77599ZM255.388 1.77599L254.588 2.376L254.674 2.49028L254.788 2.57599L255.388 1.77599ZM256.252 35.328L256.699 34.4336V34.4336L256.252 35.328ZM256.684 35.184L255.867 34.6068L255.823 34.6688L255.789 34.7368L256.684 35.184ZM274.252 27.832C281.711 27.832 287.634 30.1078 292.121 34.5951L293.535 33.1809C288.614 28.2601 282.153 25.832 274.252 25.832V27.832ZM292.121 34.5951C296.599 39.073 298.884 45.1812 298.884 53.04H300.884C300.884 44.7708 298.465 38.111 293.535 33.1809L292.121 34.5951ZM298.884 53.04V100.272H300.884V53.04H298.884ZM298.884 100.272C298.884 100.451 298.824 100.638 298.601 100.861L300.015 102.275C300.56 101.73 300.884 101.053 300.884 100.272H298.884ZM298.601 100.861C298.534 100.928 298.422 101 298.156 101V103C298.85 103 299.506 102.784 300.015 102.275L298.601 100.861ZM298.156 101H281.308V103H298.156V101ZM281.308 101C281.044 101 280.823 100.926 280.612 100.768L279.412 102.368C279.969 102.786 280.612 103 281.308 103V101ZM280.812 100.968C280.654 100.757 280.58 100.536 280.58 100.272H278.58C278.58 100.968 278.794 101.611 279.212 102.168L280.812 100.968ZM280.58 100.272V57.216H278.58V100.272H280.58ZM280.58 57.216C280.58 53.1725 279.411 49.7956 277.004 47.1789L275.532 48.5331C277.541 50.7164 278.58 53.5795 278.58 57.216H280.58ZM277.019 47.1954C274.694 44.5542 271.576 43.256 267.772 43.256V45.256C271.072 45.256 273.617 46.3578 275.517 48.5166L277.019 47.1954ZM267.772 43.256C263.968 43.256 260.811 44.5535 258.396 47.1789L259.868 48.5331C261.868 46.3585 264.472 45.256 267.772 45.256V43.256ZM258.381 47.1954C256.078 49.8131 254.964 53.1842 254.964 57.216H256.964C256.964 53.5678 257.962 50.6989 259.883 48.5166L258.381 47.1954ZM254.964 57.216V100.272H256.964V57.216H254.964ZM254.964 100.272C254.964 100.451 254.904 100.638 254.681 100.861L256.095 102.275C256.64 101.73 256.964 101.053 256.964 100.272H254.964ZM254.681 100.861C254.613 100.928 254.502 101 254.236 101V103C254.93 103 255.586 102.784 256.095 102.275L254.681 100.861ZM254.236 101H237.388V103H254.236V101ZM237.388 101C237.124 101 236.903 100.926 236.692 100.768L235.492 102.368C236.049 102.786 236.691 103 237.388 103V101ZM236.892 100.968C236.734 100.757 236.66 100.536 236.66 100.272H234.66C234.66 100.968 234.874 101.611 235.292 102.168L236.892 100.968ZM236.66 100.272V2.928H234.66V100.272H236.66ZM236.66 2.928C236.66 2.66225 236.732 2.55037 236.799 2.4831L235.385 1.06889C234.876 1.57763 234.66 2.23374 234.66 2.928H236.66ZM236.799 2.4831C237.022 2.25979 237.209 2.19999 237.388 2.19999V0.199993C236.607 0.199993 235.929 0.5242 235.385 1.06889L236.799 2.4831ZM237.388 2.19999H254.236V0.199993H237.388V2.19999ZM254.236 2.19999C254.401 2.19999 254.489 2.2438 254.588 2.376L256.188 1.17599C255.711 0.540188 255.031 0.199993 254.236 0.199993V2.19999ZM254.788 2.57599C254.92 2.67514 254.964 2.76275 254.964 2.928H256.964C256.964 2.13324 256.624 1.45285 255.988 0.975998L254.788 2.57599ZM254.964 2.928V34.752H256.964V2.928H254.964ZM254.964 34.752C254.964 35.2678 255.157 35.8987 255.805 36.2224L256.699 34.4336C256.742 34.455 256.789 34.4869 256.833 34.5309C256.877 34.5749 256.909 34.6219 256.93 34.6648C256.971 34.7467 256.964 34.7914 256.964 34.752H254.964ZM255.805 36.2224C256.039 36.3394 256.408 36.4501 256.82 36.3127C257.232 36.1752 257.461 35.8651 257.578 35.6312L255.789 34.7368C255.81 34.6949 255.919 34.5048 256.188 34.4153C256.456 34.3259 256.657 34.4126 256.699 34.4336L255.805 36.2224ZM257.5 35.7612C261.221 30.4986 266.748 27.832 274.252 27.832V25.832C266.204 25.832 260.019 28.7334 255.867 34.6068L257.5 35.7612ZM331.546 98.688L332.011 97.8027L331.546 98.688ZM318.298 86.304L317.43 86.8001L317.435 86.8094L317.44 86.8185L318.298 86.304ZM318.298 16.896L317.436 16.3883L317.43 16.3999L318.298 16.896ZM331.546 4.51199L331.999 5.40346L332.011 5.39724L331.546 4.51199ZM370.426 4.368L369.966 5.25623L369.973 5.25938L370.426 4.368ZM383.53 16.176L382.678 16.7001L382.684 16.7097L382.69 16.7192L383.53 16.176ZM387.706 34.896L388.413 35.6031V35.6031L387.706 34.896ZM368.41 34.896L367.61 35.496L367.696 35.6103L367.81 35.696L368.41 34.896ZM363.37 22.08L362.663 22.7871L362.668 22.7927L362.674 22.7982L363.37 22.08ZM338.602 22.368L337.884 21.6715L337.884 21.6718L338.602 22.368ZM339.034 80.976L338.337 81.6933L338.342 81.6985L338.348 81.7036L339.034 80.976ZM363.802 81.84L364.459 82.5941L364.465 82.5882L364.472 82.5821L363.802 81.84ZM350.122 63.12L349.322 63.72L349.408 63.8343L349.522 63.92L350.122 63.12ZM387.706 47.424L386.906 48.024L386.992 48.1383L387.106 48.224L387.706 47.424ZM383.674 86.592L384.542 87.0881L383.674 86.592ZM370.57 98.976L371.017 99.8705L371.023 99.8674L370.57 98.976ZM351.13 102.152C343.875 102.152 337.511 100.692 332.011 97.8027L331.081 99.5732C336.909 102.636 343.601 104.152 351.13 104.152V102.152ZM332.011 97.8027C326.503 94.9085 322.225 90.906 319.155 85.7895L317.44 86.8185C320.707 92.262 325.261 96.5155 331.081 99.5732L332.011 97.8027ZM319.166 85.8079C316.191 80.602 314.69 74.5853 314.69 67.728H312.69C312.69 74.8867 314.26 81.254 317.43 86.8001L319.166 85.8079ZM314.69 67.728V35.472H312.69V67.728H314.69ZM314.69 35.472C314.69 28.6147 316.191 22.598 319.166 17.3921L317.43 16.3999C314.26 21.946 312.69 28.3133 312.69 35.472H314.69ZM319.159 17.4037C322.229 12.195 326.502 8.19868 331.999 5.40338L331.093 3.62061C325.262 6.58532 320.703 10.845 317.436 16.3883L319.159 17.4037ZM332.011 5.39724C337.511 2.50756 343.875 1.048 351.13 1.048V-0.952C343.601 -0.952 336.909 0.564434 331.081 3.62675L332.011 5.39724ZM351.13 1.048C358.292 1.048 364.562 2.46084 369.966 5.25621L370.885 3.47978C365.154 0.515156 358.56 -0.952 351.13 -0.952V1.048ZM369.973 5.25938C375.487 8.06322 379.711 11.878 382.678 16.7001L384.382 15.6519C381.205 10.49 376.693 6.43277 370.879 3.47661L369.973 5.25938ZM382.69 16.7192C385.75 21.4472 387.282 26.7292 387.282 32.592H389.282C389.282 26.3588 387.646 20.6968 384.369 15.6327L382.69 16.7192ZM387.282 32.592V33.6H389.282V32.592H387.282ZM387.282 33.6C387.282 33.7791 387.222 33.9656 386.999 34.1889L388.413 35.6031C388.958 35.0584 389.282 34.3809 389.282 33.6H387.282ZM386.999 34.1889C386.932 34.2562 386.82 34.328 386.554 34.328V36.328C387.248 36.328 387.904 36.1118 388.413 35.6031L386.999 34.1889ZM386.554 34.328H369.706V36.328H386.554V34.328ZM369.706 34.328C369.442 34.328 369.221 34.2542 369.01 34.096L367.81 35.696C368.367 36.1138 369.01 36.328 369.706 36.328V34.328ZM369.21 34.296C369.052 34.0851 368.978 33.8636 368.978 33.6H366.978C366.978 34.2964 367.192 34.9389 367.61 35.496L369.21 34.296ZM368.978 33.6V33.168H366.978V33.6H368.978ZM368.978 33.168C368.978 28.4911 367.339 24.5329 364.066 21.3618L362.674 22.7982C365.545 25.5791 366.978 29.0128 366.978 33.168H368.978ZM364.077 21.3729C360.785 18.0814 356.434 16.472 351.13 16.472V18.472C356.002 18.472 359.81 19.9346 362.663 22.7871L364.077 21.3729ZM351.13 16.472C345.717 16.472 341.268 18.1858 337.884 21.6715L339.319 23.0645C342.272 20.0222 346.175 18.472 351.13 18.472V16.472ZM337.884 21.6718C334.6 25.0587 332.994 29.5008 332.994 34.896H334.994C334.994 29.9232 336.46 26.0133 339.32 23.0641L337.884 21.6718ZM332.994 34.896V68.304H334.994V34.896H332.994ZM332.994 68.304C332.994 73.7265 334.762 78.2199 338.337 81.6933L339.731 80.2587C336.586 77.2041 334.994 73.2495 334.994 68.304H332.994ZM338.348 81.7036C341.917 85.0685 346.445 86.728 351.85 86.728V84.728C346.887 84.728 342.871 83.2195 339.72 80.2484L338.348 81.7036ZM351.85 86.728C357.017 86.728 361.256 85.3832 364.459 82.5941L363.145 81.0859C360.395 83.4808 356.666 84.728 351.85 84.728V86.728ZM364.472 82.5821C367.695 79.6713 369.266 75.6852 369.266 70.752H367.266C367.266 75.2268 365.861 78.6327 363.132 81.0979L364.472 82.5821ZM369.266 70.752V64.272H367.266V70.752H369.266ZM369.266 64.272C369.266 63.8779 369.167 63.3986 368.793 63.0249C368.419 62.6512 367.94 62.552 367.546 62.552V64.552C367.632 64.552 367.512 64.5728 367.379 64.4391C367.245 64.3054 367.266 64.1861 367.266 64.272H369.266ZM367.546 62.552H351.418V64.552H367.546V62.552ZM351.418 62.552C351.154 62.552 350.933 62.4782 350.722 62.32L349.522 63.92C350.079 64.3378 350.721 64.552 351.418 64.552V62.552ZM350.922 62.52C350.764 62.3091 350.69 62.0876 350.69 61.824H348.69C348.69 62.5204 348.904 63.1629 349.322 63.72L350.922 62.52ZM350.69 61.824V48.576H348.69V61.824H350.69ZM350.69 48.576C350.69 48.3102 350.762 48.1984 350.829 48.1311L349.415 46.7169C348.906 47.2256 348.69 47.8817 348.69 48.576H350.69ZM350.829 48.1311C351.052 47.9078 351.239 47.848 351.418 47.848V45.848C350.637 45.848 349.959 46.1722 349.415 46.7169L350.829 48.1311ZM351.418 47.848H386.554V45.848H351.418V47.848ZM386.554 47.848C386.719 47.848 386.807 47.8918 386.906 48.024L388.506 46.824C388.029 46.1882 387.349 45.848 386.554 45.848V47.848ZM387.106 48.224C387.238 48.3231 387.282 48.4108 387.282 48.576H389.282C389.282 47.7812 388.942 47.1009 388.306 46.624L387.106 48.224ZM387.282 48.576V67.584H389.282V48.576H387.282ZM387.282 67.584C387.282 74.7372 385.777 80.8959 382.806 86.0959L384.542 87.0881C387.715 81.5361 389.282 75.0228 389.282 67.584H387.282ZM382.806 86.0959C379.833 91.2978 375.612 95.2906 370.117 98.0846L371.023 99.8674C376.856 96.9014 381.371 92.6382 384.542 87.0881L382.806 86.0959ZM370.123 98.0816C364.717 100.784 358.396 102.152 351.13 102.152V104.152C358.648 104.152 365.287 102.736 371.017 99.8704L370.123 98.0816ZM448.384 30.144L447.973 31.0556L447.98 31.059L447.988 31.0622L448.384 30.144ZM459.76 38.928L458.948 39.5112L458.952 39.518L458.957 39.5247L459.76 38.928ZM463.36 101.568L462.653 100.861V100.861L463.36 101.568ZM444.064 101.568L443.264 102.168L443.35 102.282L443.464 102.368L444.064 101.568ZM443.344 94.944L443.791 94.0496H443.791L443.344 94.944ZM442.768 95.232L443.563 95.8389L443.582 95.8134L443.6 95.7867L442.768 95.232ZM405.184 97.68L405.805 96.896L405.184 97.68ZM406.048 64.416L406.662 65.2054L406.671 65.1983L406.048 64.416ZM440.752 46.992L440.063 47.717L440.073 47.7263L440.083 47.7353L440.752 46.992ZM424.624 45.84L424.16 44.9542L424.151 44.9589L424.142 44.9638L424.624 45.84ZM420.88 50.304L419.922 50.0166L419.918 50.0287L419.915 50.0409L420.88 50.304ZM419.008 51.744L418.877 52.7354L418.893 52.7375L418.908 52.739L419.008 51.744ZM401.584 49.44L401.419 50.4264L401.436 50.4292L401.453 50.4314L401.584 49.44ZM400 48.144L400.99 48.2854L400.993 48.2622L400.995 48.2388L400 48.144ZM404.752 37.2L404.002 36.5384L403.996 36.5447L403.991 36.551L404.752 37.2ZM415.984 29.568L415.622 28.6356L415.616 28.6382L415.984 29.568ZM422.32 72.768L421.773 71.931L421.765 71.936L421.758 71.9411L422.32 72.768ZM421.456 85.872L420.812 86.6369L420.824 86.6471L420.836 86.6569L421.456 85.872ZM431.68 27.832C437.801 27.832 443.225 28.9146 447.973 31.0556L448.795 29.2324C443.75 26.9575 438.039 25.832 431.68 25.832V27.832ZM447.988 31.0622C452.744 33.1138 456.381 35.9364 458.948 39.5112L460.572 38.3448C457.763 34.4316 453.816 31.3982 448.78 29.2258L447.988 31.0622ZM458.957 39.5247C461.615 43.0985 462.936 47.0658 462.936 51.456H464.936C464.936 46.6302 463.473 42.2455 460.562 38.3313L458.957 39.5247ZM462.936 51.456V100.272H464.936V51.456H462.936ZM462.936 100.272C462.936 100.451 462.876 100.638 462.653 100.861L464.067 102.275C464.612 101.73 464.936 101.053 464.936 100.272H462.936ZM462.653 100.861C462.586 100.928 462.474 101 462.208 101V103C462.902 103 463.558 102.784 464.067 102.275L462.653 100.861ZM462.208 101H445.36V103H462.208V101ZM445.36 101C445.096 101 444.875 100.926 444.664 100.768L443.464 102.368C444.021 102.786 444.664 103 445.36 103V101ZM444.864 100.968C444.706 100.757 444.632 100.536 444.632 100.272H442.632C442.632 100.968 442.846 101.611 443.264 102.168L444.864 100.968ZM444.632 100.272V95.52H442.632V100.272H444.632ZM444.632 95.52C444.632 95.0042 444.439 94.3733 443.791 94.0496L442.897 95.8384C442.854 95.817 442.807 95.7851 442.763 95.7411C442.719 95.6971 442.687 95.6501 442.665 95.6072C442.624 95.5253 442.632 95.4807 442.632 95.52H444.632ZM443.791 94.0496C443.414 93.8608 442.986 93.8608 442.609 94.0496C442.289 94.2092 442.075 94.4682 441.936 94.6773L443.6 95.7867C443.653 95.7078 443.63 95.7747 443.503 95.8384C443.429 95.8756 443.325 95.908 443.2 95.908C443.075 95.908 442.971 95.8756 442.897 95.8384L443.791 94.0496ZM441.973 94.6251C438.191 99.5781 432.06 102.152 423.328 102.152V104.152C432.452 104.152 439.281 101.446 443.563 95.8389L441.973 94.6251ZM423.328 102.152C416.003 102.152 410.192 100.37 405.805 96.896L404.563 98.4641C409.391 102.286 415.677 104.152 423.328 104.152V102.152ZM405.805 96.896C401.487 93.4776 399.272 88.4213 399.272 81.552H397.272C397.272 88.8907 399.665 94.5864 404.563 98.4641L405.805 96.896ZM399.272 81.552C399.272 74.4245 401.754 69.0224 406.662 65.2054L405.434 63.6266C399.974 67.8736 397.272 73.8955 397.272 81.552H399.272ZM406.671 65.1983C411.614 61.2623 418.752 59.224 428.224 59.224V57.224C418.496 57.224 410.85 59.3137 405.425 63.6337L406.671 65.1983ZM428.224 59.224H442.912V57.224H428.224V59.224ZM442.912 59.224C443.306 59.224 443.785 59.1248 444.159 58.7511C444.533 58.3774 444.632 57.8981 444.632 57.504H442.632C442.632 57.5899 442.611 57.4706 442.745 57.3369C442.878 57.2032 442.998 57.224 442.912 57.224V59.224ZM444.632 57.504V54.336H442.632V57.504H444.632ZM444.632 54.336C444.632 50.9539 443.598 48.2083 441.421 46.2487L440.083 47.7353C441.746 49.2317 442.632 51.3821 442.632 54.336H444.632ZM441.441 46.267C439.266 44.2008 436.094 43.256 432.112 43.256V45.256C435.81 45.256 438.398 46.1352 440.063 47.717L441.441 46.267ZM432.112 43.256C429.022 43.256 426.356 43.8037 424.16 44.9542L425.088 46.7258C426.923 45.7643 429.249 45.256 432.112 45.256V43.256ZM424.142 44.9638C422.016 46.1332 420.581 47.821 419.922 50.0166L421.838 50.5913C422.331 48.947 423.392 47.6588 425.106 46.7162L424.142 44.9638ZM419.915 50.0409C419.807 50.4389 419.669 50.5996 419.586 50.6634C419.52 50.7147 419.394 50.7776 419.107 50.749L418.908 52.739C419.582 52.8064 420.248 52.6773 420.806 52.2486C421.347 51.8324 421.665 51.2251 421.845 50.5671L419.915 50.0409ZM419.139 50.7526L401.715 48.4486L401.453 50.4314L418.877 52.7354L419.139 50.7526ZM401.748 48.4536C401.237 48.3684 401.021 48.2506 400.957 48.198C400.938 48.1821 400.959 48.194 400.976 48.2386C400.994 48.2834 400.987 48.3077 400.99 48.2854L399.01 48.0026C398.912 48.6872 399.157 49.3097 399.691 49.746C400.154 50.1254 400.779 50.3196 401.419 50.4264L401.748 48.4536ZM400.995 48.2388C401.359 44.4237 402.854 40.9665 405.513 37.8489L403.991 36.551C401.082 39.9615 399.409 43.8003 399.004 48.0492L400.995 48.2388ZM405.502 37.8616C408.264 34.7313 411.87 32.2719 416.352 30.4978L415.616 28.6382C410.882 30.5121 407 33.1407 404.002 36.5384L405.502 37.8616ZM416.345 30.5004C420.919 28.7269 426.026 27.832 431.68 27.832V25.832C425.814 25.832 420.457 26.7611 415.622 28.6356L416.345 30.5004ZM428.8 89.032C433.116 89.032 436.842 87.8736 439.92 85.5136L438.703 83.9264C436.022 85.9825 432.74 87.032 428.8 87.032V89.032ZM439.92 85.5136C443.033 83.1274 444.632 80.0087 444.632 76.224H442.632C442.632 79.3513 441.351 81.8966 438.703 83.9264L439.92 85.5136ZM444.632 76.224V71.04H442.632V76.224H444.632ZM444.632 71.04C444.632 70.6459 444.533 70.1666 444.159 69.7929C443.785 69.4192 443.306 69.32 442.912 69.32V71.32C442.998 71.32 442.878 71.3408 442.745 71.2071C442.611 71.0734 442.632 70.9541 442.632 71.04H444.632ZM442.912 69.32H432.544V71.32H442.912V69.32ZM432.544 69.32C428.112 69.32 424.489 70.155 421.773 71.931L422.867 73.605C425.143 72.117 428.336 71.32 432.544 71.32V69.32ZM421.758 71.9411C419.076 73.7648 417.72 76.383 417.72 79.68H419.72C419.72 77.025 420.764 75.0351 422.882 73.5949L421.758 71.9411ZM417.72 79.68C417.72 82.5379 418.741 84.8929 420.812 86.6369L422.1 85.1071C420.523 83.7791 419.72 82.0061 419.72 79.68H417.72ZM420.836 86.6569C422.886 88.2753 425.576 89.032 428.8 89.032V87.032C425.88 87.032 423.673 86.3486 422.076 85.0871L420.836 86.6569ZM577.886 33.6L577.156 34.2834L577.886 33.6ZM583.646 101.568L584.353 102.275V102.275L583.646 101.568ZM564.35 101.568L563.55 102.168L563.636 102.282L563.75 102.368L564.35 101.568ZM560.894 47.712L561.647 47.0535L560.894 47.712ZM544.622 47.712L543.885 47.0363L544.622 47.712ZM540.878 101.568L540.171 100.861V100.861L540.878 101.568ZM521.726 101.568L520.926 102.168L521.012 102.282L521.126 102.368L521.726 101.568ZM518.126 47.856L517.375 48.5166L517.382 48.5242L517.389 48.5317L518.126 47.856ZM502.142 46.992L501.488 46.2352L501.48 46.2427L501.471 46.2505L502.142 46.992ZM498.542 54.624L497.549 54.5072L497.542 54.5654V54.624H498.542ZM497.966 101.568L498.673 102.275L497.966 101.568ZM478.67 101.568L477.87 102.168L477.956 102.282L478.07 102.368L478.67 101.568ZM478.67 28.56L477.963 27.8529V27.8529L478.67 28.56ZM497.966 28.56L497.166 29.16L497.252 29.2743L497.366 29.36L497.966 28.56ZM499.406 35.616L498.576 35.0582L498.574 35.0613L499.406 35.616ZM530.222 29.856L529.728 30.7257L529.738 30.7312L530.222 29.856ZM538.574 38.496L539.468 38.0488L539.464 38.0397L538.574 38.496ZM539.582 38.496L540.414 39.0507L540.441 39.0109L540.463 38.9688L539.582 38.496ZM548.078 29.712L547.612 28.827L547.602 28.8323L548.078 29.712ZM560.318 27.832C567.592 27.832 573.16 30.0153 577.156 34.2834L578.616 32.9166C574.164 28.1607 568.02 25.832 560.318 25.832V27.832ZM577.156 34.2834C581.157 38.5571 583.222 44.6184 583.222 52.608H585.222C585.222 44.2776 583.063 37.6669 578.616 32.9166L577.156 34.2834ZM583.222 52.608V100.272H585.222V52.608H583.222ZM583.222 100.272C583.222 100.451 583.162 100.638 582.939 100.861L584.353 102.275C584.898 101.73 585.222 101.053 585.222 100.272H583.222ZM582.939 100.861C582.872 100.928 582.76 101 582.494 101V103C583.188 103 583.844 102.784 584.353 102.275L582.939 100.861ZM582.494 101H565.646V103H582.494V101ZM565.646 101C565.382 101 565.161 100.926 564.95 100.768L563.75 102.368C564.307 102.786 564.95 103 565.646 103V101ZM565.15 100.968C564.992 100.757 564.918 100.536 564.918 100.272H562.918C562.918 100.968 563.132 101.611 563.55 102.168L565.15 100.968ZM564.918 100.272V57.072H562.918V100.272H564.918ZM564.918 57.072C564.918 52.9648 563.863 49.5869 561.647 47.0535L560.141 48.3705C561.957 50.4451 562.918 53.3072 562.918 57.072H564.918ZM561.647 47.0535C559.421 44.5098 556.447 43.256 552.83 43.256V45.256C555.933 45.256 558.335 46.3062 560.141 48.3705L561.647 47.0535ZM552.83 43.256C549.213 43.256 546.202 44.5089 543.885 47.0363L545.359 48.3877C547.266 46.3071 549.727 45.256 552.83 45.256V43.256ZM543.885 47.0363C541.567 49.5646 540.454 52.8978 540.454 56.928H542.454C542.454 53.2782 543.453 50.4674 545.359 48.3877L543.885 47.0363ZM540.454 56.928V100.272H542.454V56.928H540.454ZM540.454 100.272C540.454 100.451 540.394 100.638 540.171 100.861L541.585 102.275C542.13 101.73 542.454 101.053 542.454 100.272H540.454ZM540.171 100.861C540.104 100.928 539.992 101 539.726 101V103C540.42 103 541.076 102.784 541.585 102.275L540.171 100.861ZM539.726 101H523.022V103H539.726V101ZM523.022 101C522.758 101 522.537 100.926 522.326 100.768L521.126 102.368C521.683 102.786 522.326 103 523.022 103V101ZM522.526 100.968C522.368 100.757 522.294 100.536 522.294 100.272H520.294C520.294 100.968 520.508 101.611 520.926 102.168L522.526 100.968ZM522.294 100.272V57.072H520.294V100.272H522.294ZM522.294 57.072C522.294 53.0418 521.181 49.7086 518.863 47.1803L517.389 48.5317C519.295 50.6114 520.294 53.4222 520.294 57.072H522.294ZM518.877 47.1954C516.564 44.5674 513.549 43.256 509.918 43.256V45.256C513.007 45.256 515.464 46.3446 517.375 48.5166L518.877 47.1954ZM509.918 43.256C506.632 43.256 503.801 44.2381 501.488 46.2352L502.796 47.7488C504.707 46.0979 507.06 45.256 509.918 45.256V43.256ZM501.471 46.2505C499.24 48.2691 497.955 51.0553 497.549 54.5072L499.535 54.7408C499.897 51.6647 501.012 49.3629 502.813 47.7335L501.471 46.2505ZM497.542 54.624V100.272H499.542V54.624H497.542ZM497.542 100.272C497.542 100.451 497.482 100.638 497.259 100.861L498.673 102.275C499.218 101.73 499.542 101.053 499.542 100.272H497.542ZM497.259 100.861C497.192 100.928 497.08 101 496.814 101V103C497.508 103 498.164 102.784 498.673 102.275L497.259 100.861ZM496.814 101H479.966V103H496.814V101ZM479.966 101C479.702 101 479.481 100.926 479.27 100.768L478.07 102.368C478.627 102.786 479.27 103 479.966 103V101ZM479.47 100.968C479.312 100.757 479.238 100.536 479.238 100.272H477.238C477.238 100.968 477.452 101.611 477.87 102.168L479.47 100.968ZM479.238 100.272V29.712H477.238V100.272H479.238ZM479.238 29.712C479.238 29.4463 479.31 29.3344 479.377 29.2671L477.963 27.8529C477.454 28.3616 477.238 29.0177 477.238 29.712H479.238ZM479.377 29.2671C479.6 29.0438 479.787 28.984 479.966 28.984V26.984C479.185 26.984 478.508 27.3082 477.963 27.8529L479.377 29.2671ZM479.966 28.984H496.814V26.984H479.966V28.984ZM496.814 28.984C496.979 28.984 497.067 29.0278 497.166 29.16L498.766 27.96C498.289 27.3242 497.609 26.984 496.814 26.984V28.984ZM497.366 29.36C497.498 29.4591 497.542 29.5468 497.542 29.712H499.542C499.542 28.9172 499.202 28.2369 498.566 27.76L497.366 29.36ZM497.542 29.712V35.328H499.542V29.712H497.542ZM497.542 35.328C497.542 35.8438 497.735 36.4747 498.383 36.7984L499.277 35.0096C499.32 35.031 499.367 35.0629 499.411 35.1069C499.455 35.1509 499.487 35.1979 499.508 35.2408C499.549 35.3227 499.542 35.3673 499.542 35.328H497.542ZM498.383 36.7984C498.76 36.9872 499.188 36.9872 499.565 36.7984C499.885 36.6387 500.099 36.3798 500.238 36.1707L498.574 35.0613C498.521 35.1402 498.543 35.0732 498.671 35.0096C498.745 34.9724 498.849 34.94 498.974 34.94C499.099 34.94 499.203 34.9724 499.277 35.0096L498.383 36.7984ZM500.236 36.1738C503.952 30.6445 509.706 27.832 517.694 27.832V25.832C509.17 25.832 502.732 28.8755 498.576 35.0582L500.236 36.1738ZM517.694 27.832C522.351 27.832 526.351 28.809 529.728 30.7257L530.716 28.9863C526.989 26.871 522.637 25.832 517.694 25.832V27.832ZM529.738 30.7312C533.211 32.6501 535.854 35.3834 537.684 38.9523L539.464 38.0397C537.454 34.1206 534.529 31.0939 530.706 28.9808L529.738 30.7312ZM537.68 38.9432C537.839 39.2611 538.243 39.928 539.042 39.928C539.425 39.928 539.726 39.7624 539.928 39.6009C540.128 39.441 540.287 39.2419 540.414 39.0507L538.75 37.9413C538.685 38.0381 538.658 38.055 538.678 38.0391C538.7 38.0216 538.827 37.928 539.042 37.928C539.271 37.928 539.421 38.0334 539.477 38.0852C539.522 38.1262 539.511 38.1348 539.468 38.0488L537.68 38.9432ZM540.463 38.9688C542.493 35.1862 545.192 32.4089 548.554 30.5917L547.602 28.8323C543.86 30.8551 540.895 33.9338 538.701 38.0232L540.463 38.9688ZM548.544 30.5969C552.035 28.7595 555.953 27.832 560.318 27.832V25.832C555.659 25.832 551.417 26.8245 547.612 28.8271L548.544 30.5969ZM663.57 57.36L662.579 57.4928L662.581 57.5044L662.583 57.516L663.57 57.36ZM664.146 69.6L665.143 69.683L665.145 69.6628L665.146 69.6425L664.146 69.6ZM617.203 72.048L618.191 71.8997L618.174 71.7846L618.131 71.6766L617.203 72.048ZM618.786 77.808L617.858 78.1794L617.868 78.2045L617.88 78.2291L618.786 77.808ZM634.05 85.872V86.872H634.058L634.066 86.8719L634.05 85.872ZM648.594 78.384L649.404 78.9712L649.416 78.9552L649.427 78.9387L648.594 78.384ZM650.898 78.096L650.191 78.8031L650.196 78.808L650.898 78.096ZM661.266 88.32L661.974 87.6129L661.969 87.608L661.266 88.32ZM661.411 90.768L662.19 91.395L662.218 91.36L662.243 91.3227L661.411 90.768ZM649.17 99.984L649.56 100.905L649.568 100.902L649.575 100.899L649.17 99.984ZM611.731 97.536L611.179 98.3702L611.185 98.3745L611.731 97.536ZM599.49 81.84L600.428 81.4918L600.421 81.4721L600.412 81.4528L599.49 81.84ZM598.627 49.008L599.568 49.3443L599.573 49.3303L599.578 49.3162L598.627 49.008ZM610.146 32.736L609.56 31.926L609.553 31.9309L610.146 32.736ZM652.914 35.04L652.219 35.759L652.225 35.7647L652.914 35.04ZM618.067 52.752L617.119 52.431L617.115 52.4444L617.111 52.4579L618.067 52.752ZM617.058 57.36L616.071 57.204L616.058 57.2815V57.36H617.058ZM643.266 57.36L642.281 57.5299L642.299 57.6337L642.338 57.7314L643.266 57.36ZM642.547 53.328L641.589 53.6153L643.547 53.328H642.547ZM637.938 46.704L637.327 47.4953L637.347 47.5106L637.367 47.5249L637.938 46.704ZM662.583 57.516C663.146 61.0858 663.337 65.0978 663.147 69.5575L665.146 69.6425C665.34 65.0782 665.147 60.9302 664.558 57.204L662.583 57.516ZM663.15 69.517C663.115 69.9347 662.999 70.0962 662.928 70.1612C662.858 70.2257 662.69 70.328 662.274 70.328V72.328C663.011 72.328 663.731 72.1423 664.285 71.6308C664.838 71.1198 665.082 70.4173 665.143 69.683L663.15 69.517ZM662.274 70.328H617.779V72.328H662.274V70.328ZM617.779 70.328C617.433 70.328 616.821 70.3843 616.422 70.8833C615.977 71.4388 616.139 72.0816 616.274 72.4194L618.131 71.6766C618.111 71.6274 618.13 71.6532 618.13 71.733C618.13 71.8294 618.101 71.9861 617.983 72.1327C617.874 72.2697 617.753 72.3162 617.717 72.3275C617.684 72.3376 617.696 72.328 617.779 72.328V70.328ZM616.214 72.1963C616.514 74.1976 617.063 76.1923 617.858 78.1794L619.715 77.4366C618.974 75.5837 618.467 73.7384 618.191 71.8997L616.214 72.1963ZM617.88 78.2291C620.59 84.0681 626.119 86.872 634.05 86.872V84.872C626.622 84.872 621.975 82.2999 619.693 77.3869L617.88 78.2291ZM634.066 86.8719C640.519 86.7711 645.664 84.1268 649.404 78.9712L647.785 77.7968C644.421 82.4332 639.87 84.7809 634.035 84.8721L634.066 86.8719ZM649.427 78.9387C649.713 78.5086 649.878 78.52 649.891 78.52V76.52C648.943 76.52 648.244 77.1074 647.762 77.8293L649.427 78.9387ZM649.891 78.52C649.811 78.52 649.795 78.494 649.862 78.5322C649.929 78.5704 650.039 78.6508 650.191 78.8031L651.606 77.3889C651.182 76.9657 650.598 76.52 649.891 76.52V78.52ZM650.196 78.808L660.564 89.032L661.969 87.608L651.601 77.384L650.196 78.808ZM660.559 89.0271C660.756 89.224 660.871 89.3788 660.932 89.4896C660.993 89.5987 660.987 89.6359 660.987 89.616H662.987C662.987 88.8248 662.509 88.1478 661.974 87.6129L660.559 89.0271ZM660.987 89.616C660.987 89.5127 661.009 89.4577 661.002 89.4798C660.997 89.4928 660.983 89.5313 660.948 89.6008C660.878 89.7403 660.76 89.9417 660.578 90.2133L662.243 91.3227C662.445 91.0183 662.615 90.7397 662.737 90.4952C662.837 90.2954 662.987 89.9668 662.987 89.616H660.987ZM660.631 90.141C657.571 93.9428 653.624 96.9207 648.766 99.0695L649.575 100.899C654.701 98.6313 658.914 95.4652 662.19 91.395L660.631 90.141ZM648.781 99.063C643.924 101.118 638.586 102.152 632.755 102.152V104.152C638.827 104.152 644.433 103.074 649.56 100.905L648.781 99.063ZM632.755 102.152C624.652 102.152 617.843 100.316 612.276 96.6976L611.185 98.3745C617.138 102.244 624.345 104.152 632.755 104.152V102.152ZM612.282 96.7018C606.805 93.0815 602.854 88.0248 600.428 81.4918L598.553 82.1882C601.119 89.0952 605.328 94.5025 611.179 98.3702L612.282 96.7018ZM600.412 81.4528C598.467 76.8204 597.466 70.6786 597.466 62.976H595.466C595.466 70.8254 596.482 77.2596 598.569 82.2272L600.412 81.4528ZM597.466 62.976C597.466 57.7849 598.175 53.2465 599.568 49.3443L597.685 48.6717C596.198 52.8335 595.466 57.6071 595.466 62.976H597.466ZM599.578 49.3162C601.725 42.6877 605.446 37.442 610.74 33.5411L609.553 31.9309C603.903 36.094 599.944 41.6963 597.675 48.6998L599.578 49.3162ZM610.733 33.5459C616.113 29.6502 622.478 27.688 629.875 27.688V25.688C622.103 25.688 615.316 27.7578 609.56 31.9261L610.733 33.5459ZM629.875 27.688C639.27 27.688 646.682 30.406 652.219 35.759L653.609 34.321C647.627 28.538 639.679 25.688 629.875 25.688V27.688ZM652.225 35.7647C657.89 41.1508 661.357 48.3683 662.579 57.4928L664.562 57.2272C663.289 47.7277 659.651 40.0652 653.604 34.3153L652.225 35.7647ZM630.018 43.256C626.837 43.256 624.113 44.0026 621.915 45.5649C619.716 47.1279 618.132 49.445 617.119 52.431L619.014 53.073C619.921 50.395 621.289 48.4641 623.074 47.1951C624.86 45.9253 627.152 45.256 630.018 45.256V43.256ZM617.111 52.4579C616.708 53.7654 616.363 55.3508 616.071 57.204L618.046 57.516C618.33 55.7212 618.657 54.2346 619.022 53.0461L617.111 52.4579ZM616.058 57.36C616.058 57.7541 616.158 58.2334 616.531 58.6071C616.905 58.9808 617.384 59.08 617.779 59.08V57.08C617.693 57.08 617.812 57.0592 617.946 57.1929C618.079 57.3266 618.058 57.4459 618.058 57.36H616.058ZM617.779 59.08H642.69V57.08H617.779V59.08ZM642.69 59.08C643.036 59.08 643.648 59.0237 644.047 58.5247C644.492 57.9692 644.33 57.3264 644.195 56.9886L642.338 57.7314C642.358 57.7806 642.339 57.7548 642.339 57.675C642.339 57.5786 642.368 57.4219 642.486 57.2753C642.595 57.1383 642.716 57.0918 642.752 57.0805C642.785 57.0704 642.773 57.08 642.69 57.08V59.08ZM644.252 57.1901C644.012 55.7977 643.831 54.7633 643.711 54.0882C643.651 53.7516 643.605 53.5001 643.573 53.3372C643.558 53.2588 643.544 53.1888 643.533 53.1379C643.531 53.1317 643.516 53.0617 643.491 52.9905C643.486 52.9762 643.461 52.9058 643.414 52.8243C643.396 52.7926 643.331 52.6807 643.208 52.5726C643.095 52.473 642.696 52.1869 642.176 52.3947C641.769 52.5573 641.636 52.9064 641.617 52.9564C641.576 53.06 641.562 53.1467 641.557 53.1791C641.547 53.2528 641.547 53.3117 641.547 53.328H643.547C643.547 53.3413 643.547 53.3979 643.536 53.47C643.531 53.5016 643.518 53.5876 643.477 53.6908C643.457 53.7404 643.325 54.0892 642.919 54.2517C642.399 54.4595 642 54.1734 641.887 54.074C641.765 53.9663 641.7 53.8548 641.682 53.8237C641.636 53.7434 641.612 53.6749 641.608 53.6632C641.586 53.6025 641.577 53.5543 641.583 53.5811C641.586 53.5962 641.595 53.6372 641.609 53.7148C641.638 53.8639 641.682 54.1044 641.742 54.4398C641.862 55.1087 642.041 56.1383 642.281 57.5299L644.252 57.1901ZM643.504 53.0406C642.583 49.9712 640.925 47.5634 638.51 45.8831L637.367 47.5249C639.368 48.9166 640.781 50.9248 641.589 53.6153L643.504 53.0406ZM638.55 45.9127C636.232 44.1214 633.365 43.256 630.018 43.256V45.256C633.008 45.256 635.421 46.0226 637.327 47.4953L638.55 45.9127ZM688.347 100.272L687.992 101.207L688.347 100.272ZM677.115 92.64L676.332 93.2619L676.338 93.2688L676.344 93.2757L677.115 92.64ZM673.659 78.96L672.952 78.2529L673.659 78.96ZM692.091 78.96L691.292 79.56L691.377 79.6743L691.492 79.76L692.091 78.96ZM696.123 85.728L695.569 86.56L695.589 86.5732L695.609 86.5855L696.123 85.728ZM712.971 86.016L713.498 86.8663L713.512 86.8574L713.526 86.8481L712.971 86.016ZM704.908 74.496L704.66 75.465L704.671 75.4675L704.908 74.496ZM694.252 71.184L694.629 70.2579L694.603 70.2474L694.577 70.2383L694.252 71.184ZM679.563 63.408L678.919 64.1729L679.563 63.408ZM682.299 33.312L682.902 34.1103L682.904 34.1087L682.299 33.312ZM720.459 30L720.059 30.9162L720.067 30.9197L720.075 30.9231L720.459 30ZM731.115 38.208L730.297 38.7829L730.302 38.7903L730.308 38.7975L731.115 38.208ZM734.427 51.6L733.72 50.8929L734.427 51.6ZM716.572 51.6L715.771 52.2L715.857 52.3143L715.971 52.4L716.572 51.6ZM712.828 44.976L712.264 45.8022L712.273 45.808L712.281 45.8136L712.828 44.976ZM696.411 53.616L695.964 54.5104L695.973 54.5147L695.982 54.5189L696.411 53.616ZM706.347 56.64L706.611 55.6752L706.591 55.6698L706.571 55.6653L706.347 56.64ZM709.948 57.648L709.673 58.6095L709.705 58.6188L709.738 58.6258L709.948 57.648ZM714.268 58.8L713.969 59.7545L713.977 59.7568L713.984 59.7589L714.268 58.8ZM730.396 66.576L729.768 67.355L730.396 66.576ZM727.804 97.104L728.381 97.9206L728.383 97.9187L727.804 97.104ZM705.195 102.008C698.855 102.008 693.365 101.109 688.703 99.3372L687.992 101.207C692.93 103.083 698.672 104.008 705.195 104.008V102.008ZM688.703 99.3372C684.031 97.5618 680.443 95.108 677.887 92.0043L676.344 93.2757C679.164 96.7 683.064 99.3342 687.992 101.207L688.703 99.3372ZM677.899 92.0181C675.446 88.9291 674.227 85.4518 674.227 81.552H672.227C672.227 85.9082 673.601 89.8229 676.332 93.2619L677.899 92.0181ZM674.227 81.552V80.112H672.227V81.552H674.227ZM674.227 80.112C674.227 79.8463 674.299 79.7344 674.367 79.6671L672.952 78.2529C672.444 78.7616 672.227 79.4177 672.227 80.112H674.227ZM674.367 79.6671C674.59 79.4438 674.776 79.384 674.956 79.384V77.384C674.175 77.384 673.497 77.7082 672.952 78.2529L674.367 79.6671ZM674.956 79.384H690.94V77.384H674.956V79.384ZM690.94 79.384C691.105 79.384 691.192 79.4278 691.292 79.56L692.891 78.36C692.415 77.7242 691.734 77.384 690.94 77.384V79.384ZM691.492 79.76C691.624 79.8591 691.667 79.9468 691.667 80.112H693.667C693.667 79.3172 693.327 78.6369 692.692 78.16L691.492 79.76ZM691.667 80.112V80.256H693.667V80.112H691.667ZM691.667 80.256C691.667 82.8037 693.083 84.9029 695.569 86.56L696.678 84.896C694.556 83.4811 693.667 81.9323 693.667 80.256H691.667ZM695.609 86.5855C698.201 88.1407 701.366 88.888 705.052 88.888V86.888C701.633 86.888 698.846 86.1953 696.638 84.8705L695.609 86.5855ZM705.052 88.888C708.434 88.888 711.275 88.2424 713.498 86.8663L712.445 85.1657C710.636 86.2856 708.197 86.888 705.052 86.888V88.888ZM713.526 86.8481C715.738 85.3735 716.995 83.4625 716.995 81.12H714.995C714.995 82.6175 714.237 83.9705 712.417 85.1839L713.526 86.8481ZM716.995 81.12C716.995 80.081 716.733 79.1273 716.18 78.2973C715.63 77.4736 714.833 76.8289 713.851 76.3376L712.956 78.1264C713.702 78.4991 714.201 78.9344 714.515 79.4067C714.826 79.8727 714.995 80.431 714.995 81.12H716.995ZM713.851 76.3376C712.016 75.4204 709.092 74.4873 705.144 73.5245L704.671 75.4675C708.595 76.4247 711.335 77.3156 712.956 78.1264L713.851 76.3376ZM705.155 73.5271C700.662 72.38 697.16 71.2891 694.629 70.2579L693.874 72.1101C696.527 73.1909 700.129 74.308 704.66 75.4649L705.155 73.5271ZM694.577 70.2383C688.51 68.1528 683.734 65.6126 680.208 62.6431L678.919 64.1729C682.689 67.3474 687.705 69.9912 693.926 72.1297L694.577 70.2383ZM680.208 62.6431C676.832 59.8006 675.091 55.6924 675.091 50.16H673.091C673.091 56.1476 674.999 60.8714 678.919 64.1729L680.208 62.6431ZM675.091 50.16C675.091 43.3564 677.691 38.0414 682.902 34.1103L681.697 32.5137C675.964 36.8386 673.091 42.7556 673.091 50.16H675.091ZM682.904 34.1087C688.251 30.0519 695.363 27.976 704.331 27.976V25.976C695.06 25.976 687.484 28.1241 681.695 32.5153L682.904 34.1087ZM704.331 27.976C710.367 27.976 715.602 28.9663 720.059 30.9162L720.86 29.0838C716.101 27.0017 710.584 25.976 704.331 25.976V27.976ZM720.075 30.9231C724.535 32.7815 727.926 35.4078 730.297 38.7829L731.934 37.633C729.313 33.9042 725.6 31.0585 720.844 29.0769L720.075 30.9231ZM730.308 38.7975C732.771 42.1736 734.003 45.998 734.003 50.304H736.003C736.003 45.586 734.644 41.3464 731.923 37.6185L730.308 38.7975ZM734.003 50.304C734.003 50.4831 733.944 50.6696 733.72 50.8929L735.135 52.3071C735.679 51.7624 736.003 51.0849 736.003 50.304H734.003ZM733.72 50.8929C733.653 50.9602 733.541 51.032 733.276 51.032V53.032C733.97 53.032 734.626 52.8158 735.135 52.3071L733.72 50.8929ZM733.276 51.032H717.867V53.032H733.276V51.032ZM717.867 51.032C717.604 51.032 717.382 50.9582 717.172 50.8L715.971 52.4C716.529 52.8178 717.171 53.032 717.867 53.032V51.032ZM717.372 51C717.213 50.7891 717.14 50.5676 717.14 50.304H715.14C715.14 51.0004 715.354 51.6429 715.771 52.2L717.372 51ZM717.14 50.304C717.14 47.7685 715.785 45.7108 713.374 44.1384L712.281 45.8136C714.286 47.1212 715.14 48.6154 715.14 50.304H717.14ZM713.391 44.1498C711.06 42.5603 708.009 41.816 704.331 41.816V43.816C707.758 43.816 710.371 44.5117 712.264 45.8022L713.391 44.1498ZM704.331 41.816C701.05 41.816 698.272 42.4116 696.059 43.6758L697.052 45.4122C698.871 44.3724 701.277 43.816 704.331 43.816V41.816ZM696.059 43.6758C693.788 44.9734 692.531 46.8603 692.531 49.296H694.531C694.531 47.6997 695.291 46.4186 697.052 45.4122L696.059 43.6758ZM692.531 49.296C692.531 50.431 692.818 51.4687 693.419 52.3707C694.017 53.2664 694.886 53.9711 695.964 54.5104L696.859 52.7216C696.017 52.3009 695.446 51.8056 695.084 51.2613C694.725 50.7233 694.531 50.081 694.531 49.296H692.531ZM695.982 54.5189C698.103 55.5289 701.506 56.5563 706.124 57.6147L706.571 55.6653C701.973 54.6117 698.752 53.623 696.841 52.7131L695.982 54.5189ZM706.084 57.6048C707.136 57.8915 708.332 58.2263 709.673 58.6095L710.222 56.6865C708.875 56.3017 707.671 55.9645 706.611 55.6752L706.084 57.6048ZM709.738 58.6258C711.048 58.9064 712.458 59.2821 713.969 59.7545L714.566 57.8455C713.005 57.3579 711.535 56.9656 710.157 56.6702L709.738 58.6258ZM713.984 59.7589C720.722 61.7519 725.966 64.2948 729.768 67.355L731.023 65.797C726.953 62.5211 721.445 59.8801 714.551 57.8411L713.984 59.7589ZM729.768 67.355C733.421 70.2952 735.299 74.5885 735.299 80.4H737.299C737.299 74.1155 735.242 69.1928 731.023 65.797L729.768 67.355ZM735.299 80.4C735.299 87.1889 732.617 92.4498 727.224 96.2893L728.383 97.9187C734.318 93.6942 737.299 87.8191 737.299 80.4H735.299ZM727.226 96.2874C721.882 100.065 714.572 102.008 705.195 102.008V104.008C714.827 104.008 722.589 102.015 728.381 97.9206L727.226 96.2874Z" fill="black"/>
</g>
<defs>
<filter id="filter0_d_1_6" x="0.783997" y="0.0479965" width="739.516" height="111.104" filterUnits="userSpaceOnUse" color-interpolation-filters="sRGB">
<feFlood flood-opacity="0" result="BackgroundImageFix"/>
<feColorMatrix in="SourceAlpha" type="matrix" values="0 0 0 0 0 0 0 0 0 0 0 0 0 0 0 0 0 0 127 0" result="hardAlpha"/>
<feOffset dy="4"/>
<feGaussianBlur stdDeviation="2"/>
<feComposite in2="hardAlpha" operator="out"/>
<feColorMatrix type="matrix" values="0 0 0 0 0 0 0 0 0 0 0 0 0 0 0 0 0 0 0.25 0"/>
<feBlend mode="normal" in2="BackgroundImageFix" result="effect1_dropShadow_1_6"/>
<feBlend mode="normal" in="SourceGraphic" in2="effect1_dropShadow_1_6" result="shape"/>
</filter>
<linearGradient id="paint0_linear_1_6" x1="368.5" y1="-42" x2="368.5" y2="131" gradientUnits="userSpaceOnUse">
<stop offset="0.265625" stop-color="#403F3F"/>
<stop offset="0.53125" stop-opacity="0.59"/>
<stop offset="0.822917" stop-color="#403F3F"/>
</linearGradient>
</defs>
</svg>
