<svg width="125" height="96" viewBox="0 0 125 96" fill="none" xmlns="http://www.w3.org/2000/svg">
<path d="M62.6564 94.6835H6.65365C5.30339 94.6835 4.00844 94.2734 3.05366 93.5432C2.09889 92.8131 1.5625 91.8229 1.5625 90.7903V47.9647C1.5625 41.8295 3.14273 35.7544 6.21298 30.0862C9.28322 24.4181 13.7833 19.2678 19.4564 14.9296C25.1295 10.5914 31.8644 7.15011 39.2766 4.80228C46.6888 2.45444 54.6332 1.24603 62.6561 1.24603H62.6562C70.6792 1.24603 78.6236 2.45445 86.0358 4.80229C93.4481 7.15012 100.183 10.5914 105.856 14.9296C111.529 19.2679 116.029 24.4181 119.1 30.0863C122.17 35.7545 123.75 41.8296 123.75 47.9648V47.9649C123.75 60.3554 117.313 72.2385 105.856 81C94.3988 89.7614 78.8594 94.6835 62.6564 94.6835Z" stroke="#2E2D2D" stroke-width="2" stroke-linecap="round" stroke-linejoin="round"/>
</svg>
